<svg xmlns="http://www.w3.org/2000/svg"><symbol id="icon-arrow-left" viewBox="0 0 24 24"><path fill-rule="evenodd" clip-rule="evenodd" d="M14.03 7.47a.75.75 0 010 1.06L10.56 12l3.47 3.47a.75.75 0 11-1.06 1.06l-4-4a.75.75 0 010-1.06l4-4a.75.75 0 011.06 0z"/></symbol><symbol id="icon-external" viewBox="0 0 24 24"><path d="M10.409 8.434a.75.75 0 110-1.5h5.657a.75.75 0 01.75.75v5.657a.75.75 0 01-1.5 0V9.495l-6.852 6.851a.75.75 0 01-1.06-1.06l6.851-6.852H10.41z"/></symbol><symbol id="icon-menu" viewBox="0 0 1792 1792"><path d="M1664 1344v128q0 26-19 45t-45 19H192q-26 0-45-19t-19-45v-128q0-26 19-45t45-19h1408q26 0 45 19t19 45zm0-512v128q0 26-19 45t-45 19H192q-26 0-45-19t-19-45V832q0-26 19-45t45-19h1408q26 0 45 19t19 45zm0-512v128q0 26-19 45t-45 19H192q-26 0-45-19t-19-45V320q0-26 19-45t45-19h1408q26 0 45 19t19 45z"/></symbol></svg>